<svg width="196" height="165" viewBox="0 0 196 165" fill="none" xmlns="http://www.w3.org/2000/svg">
<path d="M32.8107 47.2747L32.4267 47.744C32.1423 48.0284 31.6587 48.3982 30.976 48.8533C30.3218 49.28 29.5254 49.7209 28.5867 50.176C27.6765 50.6027 26.4534 50.9582 24.9174 51.2427C23.3814 51.5556 21.7316 51.712 19.968 51.712C16.2418 51.712 13.056 51.1004 10.4107 49.8773C7.7654 48.6258 5.6889 46.8196 4.1814 44.4587C2.7023 42.0693 1.6356 39.3813 0.9814 36.3947C0.3271 33.3796 0 29.8951 0 25.9413C0 21.7316 0.3271 18.1049 0.9814 15.0613C1.6356 11.9893 2.7165 9.30133 4.224 6.99734C5.76 4.66489 7.8649 2.91556 10.5387 1.74933C13.2125 0.583111 16.4694 0 20.3094 0C22.0729 0 23.7227 0.156444 25.2587 0.469334C26.8231 0.78222 28.0463 1.13778 28.928 1.536C29.8383 1.93422 30.6489 2.38933 31.36 2.90133C32.0996 3.41333 32.5547 3.76889 32.7254 3.968C32.9245 4.16711 33.0667 4.32356 33.152 4.43733L32.512 14.2507H26.0267L23.808 9.17333C23.296 9.03111 22.8694 8.96 22.528 8.96C20.6223 8.96 19.1574 9.40089 18.1334 10.2827C17.1094 11.136 16.3271 12.8284 15.7867 15.36C15.2463 17.8631 14.976 21.4756 14.976 26.1973C14.976 29.0133 15.1467 31.4738 15.488 33.5787C15.8578 35.6836 16.2987 37.3049 16.8107 38.4427C17.3227 39.552 17.9343 40.448 18.6454 41.1307C19.3565 41.8133 19.9965 42.2542 20.5654 42.4533C21.1343 42.624 21.7458 42.7093 22.4 42.7093C23.8507 42.7093 25.3725 42.5387 26.9654 42.1973C28.5583 41.8276 29.8667 41.2729 30.8907 40.5333L32.8107 47.2747ZM66.863 50.816H36.6124V0.810665H66.223L65.3697 10.88L50.735 10.4533V20.096H62.255V30.08L50.735 29.2267V40.576L66.863 40.1493V50.816ZM84.3052 50.816H70.7374V4.82133L68.6467 0.810665H84.3482L92.1982 17.024L99.7082 33.1947L97.6172 14.208V0.810665H111.228V50.816H98.2152L88.0602 31.0613L81.7882 18.688L84.3052 35.072V50.816ZM141.521 50.816L139.601 42.8373H127.483L125.862 50.816H113.318L126.331 4.26667L125.307 0.810665H142.928L157.179 50.816H141.521ZM132.987 15.488L129.233 34.1333H137.51L132.987 15.488Z" fill="black"/>
<path d="M80.8608 163.816V125.117H70.8768V113.811H105.266V125.117H95.2821V163.816H80.8608ZM133.583 163.816L131.663 155.837H119.546L117.924 163.816H105.38L118.394 117.267L117.37 113.811H134.991L149.242 163.816H133.583ZM125.05 128.488L121.295 147.133H129.572L125.05 128.488ZM150.925 163.816V113.811H165.047V152.381H177.762V163.816H150.925ZM186.496 164.627L179.499 157.587V156.093L186.496 149.096H188.117L195.413 156.093V157.587L188.117 164.627H186.496Z" fill="black"/>
<path d="M101.454 106.28C99.0081 108.271 94.1581 109.267 86.9051 109.267C81.2161 109.267 76.7361 107.716 73.465 104.616C70.1939 101.487 68.5583 97.5902 68.5583 92.9253C68.5583 90.0524 69.568 87.5493 71.5876 85.416C73.6072 83.2827 75.9396 81.6756 78.5849 80.5947C78.4143 80.2249 78.0587 79.6133 77.5183 78.76C77.0063 77.9067 76.5227 77.1102 76.0676 76.3707C75.6125 75.6311 75.2 74.6782 74.8303 73.512C74.4605 72.3458 74.2757 71.1796 74.2757 70.0133C74.2757 65.6613 75.6125 62.376 78.2863 60.1573C80.9885 57.9387 85.4971 56.8293 91.8121 56.8293C94.5991 56.8293 97.0451 57.1991 99.1501 57.9387C101.255 58.6782 102.876 59.6738 104.014 60.9253C105.152 62.1484 105.991 63.4569 106.531 64.8507C107.072 66.216 107.342 67.6667 107.342 69.2027C107.342 72.3884 106.475 75.2329 104.74 77.736C103.033 80.2107 100.373 82.5716 96.7611 84.8187C97.1881 85.5867 97.9551 86.6676 99.0651 88.0613C100.203 89.4267 101.241 90.4933 102.179 91.2613C102.436 90.6071 102.635 89.9529 102.777 89.2987C102.947 88.616 103.075 87.848 103.161 86.9947C103.275 86.1413 103.232 85.416 103.033 84.8187L114.425 85.16C114.425 87.3787 114.183 89.3698 113.699 91.1333C113.216 92.8684 112.732 94.1342 112.249 94.9307C111.765 95.6987 111.083 96.6658 110.201 97.832C112.22 99.5102 114.226 100.563 116.217 100.989L112.932 108.456C112.164 108.541 111.552 108.584 111.097 108.584C106.916 108.584 103.701 107.816 101.454 106.28ZM81.2301 93.1813C81.2301 95.7698 82.0411 97.8889 83.6621 99.5387C85.2831 101.188 87.1752 102.013 89.3372 102.013C89.6782 102.013 89.9911 101.999 90.2751 101.971C90.5601 101.914 90.8592 101.828 91.1712 101.715C91.4842 101.572 91.7551 101.459 91.9821 101.373C92.2101 101.26 92.5511 101.089 93.0061 100.861C93.4611 100.634 93.8312 100.449 94.1152 100.307C89.5072 97.0924 85.8101 93.096 83.0221 88.3173C82.3391 88.7156 81.8701 89.256 81.6141 89.9387C81.3581 90.6213 81.2301 91.7022 81.2301 93.1813ZM91.5981 62.8027C89.5221 62.8027 88.4831 65.1351 88.4831 69.8C88.4831 72.7013 89.5361 75.3609 91.6411 77.7787C92.7501 76.8684 93.5752 75.9013 94.1152 74.8773C94.6562 73.8533 94.9691 72.9716 95.0541 72.232C95.1681 71.464 95.2251 70.3973 95.2251 69.032C95.2251 64.8791 94.0161 62.8027 91.5981 62.8027Z" fill="black"/>
</svg>
