<svg width="975" height="415" viewBox="0 0 975 415" fill="none" xmlns="http://www.w3.org/2000/svg">
<g opacity="0.3" clip-path="url(#clip0_502_179)">
<path d="M312.973 331.077H268.503V409.125H160.682V331.077H0V251.35L167.814 5.87451H268.503V249.671H312.973V331.077ZM160.682 249.671V202.674C160.682 193.862 161.102 182.113 161.521 167.007C162.36 151.901 162.78 144.348 163.199 143.508H160.262C153.969 157.775 146.837 170.783 138.866 183.372L94.3954 249.671H160.682Z" fill="white"/>
<path d="M632.659 208.129C632.659 279.464 620.493 331.916 596.999 365.066C573.085 398.215 536.586 415 487.08 415C438.834 415 402.754 397.796 378.001 362.968C353.668 328.14 341.502 276.527 341.502 208.129C341.502 136.375 353.249 83.9231 377.582 50.3539C401.495 16.7846 437.995 0 487.5 0C535.327 0 571.827 17.6239 596.16 52.452C620.493 87.2801 632.659 138.893 632.659 208.129ZM449.742 208.129C449.742 253.868 452.679 285.339 458.133 302.123C464.006 319.328 473.236 327.72 486.661 327.72C500.086 327.72 509.735 318.908 515.609 301.284C521.063 283.66 524 252.609 524 208.129C524 163.231 521.063 132.179 515.609 114.135C509.735 96.092 500.506 87.2801 487.08 87.2801C473.655 87.2801 464.006 96.092 458.552 113.296C452.679 130.501 449.742 161.972 449.742 208.129Z" fill="white"/>
<path d="M975 331.077H930.529V409.125H822.709V331.077H662.027V251.35L829.841 5.87451H930.529V249.671H975V331.077ZM823.128 249.671V202.674C823.128 193.862 823.548 182.113 823.967 167.007C824.807 151.901 825.226 144.348 825.646 143.508H822.709C816.416 157.775 809.284 170.783 801.313 183.372L756.422 250.091H823.128V249.671Z" fill="white"/>
</g>
<path d="M523.039 123.23C525.202 133.612 527.365 143.994 529.528 154.376C522.606 159.567 506.601 165.191 490.595 165.191C474.157 165.191 455.988 159.567 449.067 154.376C451.662 144.427 454.69 134.477 457.286 124.095" stroke="black" stroke-width="3" stroke-miterlimit="10"/>
<path d="M526.067 152.214C549.426 165.624 565 191.146 565 220.129V285.45L558.511 297.562H449.067" stroke="black" stroke-width="3" stroke-miterlimit="10"/>
<path d="M472.427 106.793C474.158 114.147 481.079 119.77 489.298 119.77C497.517 119.77 504.006 114.147 506.169 106.793" stroke="black" stroke-width="3" stroke-miterlimit="10"/>
<path d="M557.646 295.832V299.292C557.646 310.972 552.887 322.219 544.668 330.871H536.882" stroke="black" stroke-width="3" stroke-miterlimit="10"/>
<path d="M526.933 246.95H418.354L411.865 223.157C411 220.562 411 217.966 411 215.804C412.298 188.551 427.871 165.191 449.933 152.214" stroke="black" stroke-width="3" stroke-miterlimit="10"/>
<path d="M533.421 224.022H538.612C548.562 224.022 559.376 241.326 559.376 241.326V246.949H526.933" stroke="black" stroke-width="3" stroke-miterlimit="10"/>
<path d="M451.663 306.646C452.095 302.753 452.095 298.427 451.663 293.668C451.23 288.91 450.365 284.584 449.5 280.691C447.337 269.876 444.742 258.629 442.579 247.814" stroke="black" stroke-width="3" stroke-miterlimit="10"/>
<path d="M544.235 250.41L536.881 287.18C536.016 291.938 535.584 296.264 535.584 301.022" stroke="black" stroke-width="3" stroke-miterlimit="10"/>
<path d="M529.095 154.809V245.652" stroke="black" stroke-width="3" stroke-miterlimit="10"/>
<path d="M501.843 193.741H416.191" stroke="black" stroke-width="3" stroke-miterlimit="10"/>
<path d="M534.287 295.832V384.944H521.31V408.736H488.866V395.759C490.163 394.029 491.461 391.866 494.057 389.703C497.085 387.107 499.68 385.377 501.843 384.512C501.411 355.961 500.978 327.411 500.978 298.86H491.029L482.377 385.377H469.399V409.169H420.517L420.95 401.383C423.113 394.894 429.169 391.866 436.09 391.866H451.231C451.231 359.422 451.231 326.545 451.231 294.102" stroke="black" stroke-width="3" stroke-miterlimit="10"/>
<path d="M437.821 83.8652V57.9101C437.821 29.3596 461.18 6 489.731 6C518.282 6 541.641 29.3596 541.641 57.9101V83.8652" stroke="black" stroke-width="3" stroke-miterlimit="10"/>
<path d="M541.641 83.8647C541.641 112.415 518.282 135.775 489.731 135.775C461.18 135.775 437.821 112.415 437.821 83.8647" stroke="black" stroke-width="3" stroke-miterlimit="10"/>
<path d="M436.089 83.8652L519.578 15.5168" stroke="black" stroke-width="3" stroke-miterlimit="10"/>
<path d="M445.607 113.281L538.612 36.7131" stroke="black" stroke-width="3" stroke-miterlimit="10"/>
<path d="M447.337 31.0901H500.545" stroke="black" stroke-width="3" stroke-miterlimit="10"/>
<path d="M506.168 63.1011H541.64" stroke="black" stroke-width="3" stroke-miterlimit="10"/>
<path d="M439.984 63.1011H462.045" stroke="black" stroke-width="3" stroke-miterlimit="10"/>
<path d="M468.967 92.9495H541.641" stroke="black" stroke-width="3" stroke-miterlimit="10"/>
<path d="M444.309 195.905V245.652" stroke="black" stroke-width="3" stroke-miterlimit="10"/>
<path d="M474.157 195.905V245.652" stroke="black" stroke-width="3" stroke-miterlimit="10"/>
<path d="M500.545 166.921V245.652" stroke="black" stroke-width="3" stroke-miterlimit="10"/>
<path d="M445.607 271.607H539.91" stroke="black" stroke-width="3" stroke-miterlimit="10"/>
<path d="M531.258 178.602H555.05" stroke="black" stroke-width="3" stroke-miterlimit="10"/>
<path d="M422.68 178.602H500.978" stroke="black" stroke-width="3" stroke-miterlimit="10"/>
<path d="M531.258 206.286H563.702" stroke="black" stroke-width="3" stroke-miterlimit="10"/>
<path d="M451.663 326.545H488.433" stroke="black" stroke-width="3" stroke-miterlimit="10"/>
<path d="M451.663 357.258H484.107" stroke="black" stroke-width="3" stroke-miterlimit="10"/>
<path d="M451.663 384.511H484.107" stroke="black" stroke-width="3" stroke-miterlimit="10"/>
<path d="M498.814 326.545H535.584" stroke="black" stroke-width="3" stroke-miterlimit="10"/>
<path d="M498.814 357.258H531.258" stroke="black" stroke-width="3" stroke-miterlimit="10"/>
<path d="M498.814 384.511H531.258" stroke="black" stroke-width="3" stroke-miterlimit="10"/>
<defs>
<clipPath id="clip0_502_179">
<rect width="975" height="415" fill="white"/>
</clipPath>
</defs>
</svg>
