<svg width="197" height="165" viewBox="0 0 197 165" fill="none" xmlns="http://www.w3.org/2000/svg">
<path d="M33.6195 47.4587L33.2355 47.928C32.9511 48.2124 32.4675 48.5822 31.7848 49.0373C31.1306 49.464 30.3342 49.9049 29.3955 50.36C28.4853 50.7867 27.2622 51.1422 25.7262 51.4267C24.1902 51.7396 22.5404 51.896 20.7768 51.896C17.0506 51.896 13.8648 51.2844 11.2195 50.0613C8.57424 48.8098 6.49774 47.0036 4.99024 44.6427C3.51114 42.2533 2.44444 39.5653 1.79024 36.5787C1.13594 33.5636 0.808838 30.0791 0.808838 26.1253C0.808838 21.9156 1.13594 18.2889 1.79024 15.2453C2.44444 12.1733 3.52534 9.48532 5.03284 7.18133C6.56884 4.84888 8.67374 3.09955 11.3475 1.93332C14.0213 0.767102 17.2782 0.18399 21.1182 0.18399C22.8817 0.18399 24.5315 0.340434 26.0675 0.653324C27.6319 0.96621 28.8551 1.32177 29.7368 1.71999C30.6471 2.11821 31.4577 2.57332 32.1688 3.08532C32.9084 3.59732 33.3635 3.95288 33.5342 4.15199C33.7333 4.3511 33.8755 4.50755 33.9608 4.62132L33.3208 14.4347H26.8355L24.6168 9.35732C24.1048 9.2151 23.6782 9.14399 23.3368 9.14399C21.4311 9.14399 19.9662 9.58488 18.9422 10.4667C17.9182 11.32 17.1359 13.0124 16.5955 15.544C16.0551 18.0471 15.7848 21.6596 15.7848 26.3813C15.7848 29.1973 15.9555 31.6578 16.2968 33.7627C16.6666 35.8676 17.1075 37.4889 17.6195 38.6267C18.1315 39.736 18.7431 40.632 19.4542 41.3147C20.1653 41.9973 20.8053 42.4382 21.3742 42.6373C21.9431 42.808 22.5546 42.8933 23.2088 42.8933C24.6595 42.8933 26.1813 42.7227 27.7742 42.3813C29.3671 42.0116 30.6755 41.4569 31.6995 40.7173L33.6195 47.4587ZM67.6718 51H37.4212V0.994655H67.0318L66.1785 11.064L51.5438 10.6373V20.28H63.0638V30.264L51.5438 29.4107V40.76L67.6718 40.3333V51ZM85.114 51H71.5462V5.00532L69.4555 0.994655H85.157L93.007 17.208L100.517 33.3787L98.426 14.392V0.994655H112.037V51H99.024L88.869 31.2453L82.597 18.872L85.114 35.256V51ZM142.33 51L140.41 43.0213H128.292L126.671 51H114.127L127.14 4.45066L126.116 0.994655H143.737L157.988 51H142.33ZM133.796 15.672L130.042 34.3173H138.319L133.796 15.672Z" fill="white"/>
<path d="M81.6697 164V125.301H71.6857V113.995H106.075V125.301H96.091V164H81.6697ZM134.392 164L132.472 156.021H120.355L118.733 164H106.189L119.203 117.451L118.179 113.995H135.8L150.051 164H134.392ZM125.859 128.672L122.104 147.317H130.381L125.859 128.672ZM151.734 164V113.995H165.856V152.565H178.571V164H151.734ZM187.305 164.811L180.308 157.771V156.277L187.305 149.28H188.926L196.222 156.277V157.771L188.926 164.811H187.305Z" fill="white"/>
<path d="M102.263 106.464C99.817 108.455 94.967 109.451 87.714 109.451C82.025 109.451 77.5449 107.9 74.2738 104.8C71.0027 101.671 69.3672 97.7742 69.3672 93.1093C69.3672 90.2364 70.3769 87.7333 72.3965 85.6C74.4161 83.4667 76.7485 81.8596 79.3938 80.7787C79.2232 80.4089 78.8676 79.7973 78.3272 78.944C77.8152 78.0907 77.3316 77.2942 76.8765 76.5547C76.4214 75.8151 76.0089 74.8622 75.6392 73.696C75.2694 72.5298 75.0845 71.3636 75.0845 70.1973C75.0845 65.8453 76.4214 62.56 79.0952 60.3413C81.7974 58.1227 86.306 57.0133 92.621 57.0133C95.408 57.0133 97.854 57.3831 99.959 58.1227C102.064 58.8622 103.685 59.8578 104.823 61.1093C105.961 62.3324 106.8 63.6409 107.34 65.0347C107.881 66.4 108.151 67.8507 108.151 69.3867C108.151 72.5724 107.284 75.4169 105.549 77.92C103.842 80.3947 101.182 82.7556 97.57 85.0027C97.997 85.7707 98.764 86.8516 99.874 88.2453C101.012 89.6107 102.05 90.6773 102.988 91.4453C103.245 90.7911 103.444 90.1369 103.586 89.4827C103.756 88.8 103.884 88.032 103.97 87.1787C104.084 86.3253 104.041 85.6 103.842 85.0027L115.234 85.344C115.234 87.5627 114.992 89.5538 114.508 91.3173C114.025 93.0524 113.541 94.3182 113.058 95.1147C112.574 95.8827 111.892 96.8498 111.01 98.016C113.029 99.6942 115.035 100.747 117.026 101.173L113.741 108.64C112.973 108.725 112.361 108.768 111.906 108.768C107.725 108.768 104.51 108 102.263 106.464ZM82.039 93.3653C82.039 95.9538 82.85 98.0729 84.471 99.7227C86.092 101.372 87.984 102.197 90.146 102.197C90.487 102.197 90.8 102.183 91.084 102.155C91.369 102.098 91.668 102.012 91.98 101.899C92.293 101.756 92.564 101.643 92.791 101.557C93.019 101.444 93.36 101.273 93.815 101.045C94.27 100.818 94.64 100.633 94.924 100.491C90.316 97.2764 86.619 93.28 83.831 88.5013C83.148 88.8996 82.679 89.44 82.423 90.1227C82.167 90.8053 82.039 91.8862 82.039 93.3653ZM92.407 62.9867C90.331 62.9867 89.292 65.3191 89.292 69.984C89.292 72.8853 90.345 75.5449 92.45 77.9627C93.559 77.0524 94.384 76.0853 94.924 75.0613C95.465 74.0373 95.778 73.1556 95.863 72.416C95.977 71.648 96.034 70.5813 96.034 69.216C96.034 65.0631 94.825 62.9867 92.407 62.9867Z" fill="white"/>
</svg>
