<svg width="55" height="54" viewBox="0 0 55 54" fill="none" xmlns="http://www.w3.org/2000/svg">
<path d="M13.4059 38.475C15.3538 37.0125 17.5309 35.8594 19.9372 35.0156C22.3434 34.1719 24.8643 33.75 27.4997 33.75C30.1351 33.75 32.6559 34.1719 35.0622 35.0156C37.4684 35.8594 39.6455 37.0125 41.5934 38.475C42.9302 36.9375 43.971 35.1938 44.7158 33.2438C45.4606 31.2938 45.833 29.2125 45.833 27C45.833 22.0125 44.0474 17.7656 40.4762 14.2594C36.9051 10.7531 32.5795 9 27.4997 9C22.4198 9 18.0943 10.7531 14.5231 14.2594C10.9519 17.7656 9.16634 22.0125 9.16634 27C9.16634 29.2125 9.53874 31.2938 10.2835 33.2438C11.0283 35.1938 12.0691 36.9375 13.4059 38.475ZM27.4997 29.25C25.2462 29.25 23.346 28.4906 21.7992 26.9719C20.2523 25.4531 19.4788 23.5875 19.4788 21.375C19.4788 19.1625 20.2523 17.2969 21.7992 15.7781C23.346 14.2594 25.2462 13.5 27.4997 13.5C29.7531 13.5 31.6533 14.2594 33.2002 15.7781C34.7471 17.2969 35.5205 19.1625 35.5205 21.375C35.5205 23.5875 34.7471 25.4531 33.2002 26.9719C31.6533 28.4906 29.7531 29.25 27.4997 29.25ZM27.4997 49.5C24.3295 49.5 21.3504 48.9094 18.5622 47.7281C15.774 46.5469 13.3486 44.9438 11.2861 42.9188C9.22363 40.8938 7.59082 38.5125 6.3877 35.775C5.18457 33.0375 4.58301 30.1125 4.58301 27C4.58301 23.8875 5.18457 20.9625 6.3877 18.225C7.59082 15.4875 9.22363 13.1062 11.2861 11.0812C13.3486 9.05625 15.774 7.45313 18.5622 6.27188C21.3504 5.09062 24.3295 4.5 27.4997 4.5C30.6698 4.5 33.649 5.09062 36.4372 6.27188C39.2254 7.45313 41.6507 9.05625 43.7132 11.0812C45.7757 13.1062 47.4085 15.4875 48.6117 18.225C49.8148 20.9625 50.4163 23.8875 50.4163 27C50.4163 30.1125 49.8148 33.0375 48.6117 35.775C47.4085 38.5125 45.7757 40.8938 43.7132 42.9188C41.6507 44.9438 39.2254 46.5469 36.4372 47.7281C33.649 48.9094 30.6698 49.5 27.4997 49.5Z" fill="#1D1B20"/>
</svg>
