<svg width="46" height="46" viewBox="0 0 46 46" fill="none" xmlns="http://www.w3.org/2000/svg">
<path d="M45.5719 0.425254C45.7746 0.628348 45.9132 0.886542 45.9705 1.16776C46.0278 1.44898 46.0012 1.74084 45.8941 2.00707L28.8506 44.6195C28.7004 44.9947 28.4496 45.3213 28.1258 45.5632C27.802 45.8051 27.4178 45.9529 27.0153 45.9905C26.6129 46.028 26.2079 45.9538 25.845 45.776C25.482 45.5982 25.1751 45.3237 24.9581 44.9827L15.65 30.3509L1.02001 21.0416C0.678256 20.8248 0.403036 20.5178 0.224718 20.1544C0.0464003 19.791 -0.0280832 19.3855 0.0094865 18.9825C0.0470562 18.5794 0.195219 18.1946 0.437625 17.8705C0.680031 17.5464 1.00726 17.2955 1.3832 17.1456L43.9902 0.105962C44.2564 -0.00121429 44.5483 -0.0278114 44.8295 0.0294743C45.1106 0.08676 45.3688 0.225404 45.5719 0.428184V0.425254ZM18.5731 29.4955L26.6598 42.2028L40.5224 7.54343L18.5731 29.4955ZM38.4517 5.47242L3.79663 19.3368L16.5052 27.4216L38.4517 5.47242Z" fill="white"/>
</svg>
