<svg width="46" height="38" viewBox="0 0 46 38" fill="none" xmlns="http://www.w3.org/2000/svg">
<path d="M45.5719 0.351297C45.7746 0.51907 45.9132 0.732361 45.9705 0.964674C46.0278 1.19699 46.0012 1.43808 45.8941 1.65802L28.8506 36.8596C28.7004 37.1696 28.4496 37.4393 28.1258 37.6392C27.802 37.839 27.4178 37.9611 27.0153 37.9921C26.6129 38.0232 26.2079 37.9619 25.845 37.815C25.482 37.6681 25.1751 37.4413 24.9581 37.1596L15.65 25.0725L1.02001 17.3822C0.678256 17.2031 0.403036 16.9495 0.224718 16.6493C0.0464003 16.3491 -0.0280832 16.0141 0.0094865 15.6812C0.0470562 15.3482 0.195219 15.0304 0.437625 14.7626C0.680031 14.4948 1.00726 14.2876 1.3832 14.1638L43.9902 0.0875337C44.2565 -0.00100311 44.5483 -0.0229747 44.8295 0.0243483C45.1106 0.0716713 45.3688 0.186203 45.5719 0.353717V0.351297ZM18.5731 24.3659L26.6598 34.8632L40.5224 6.23153L18.5731 24.3659ZM38.4517 4.5207L3.79663 15.9738L16.5052 22.6526L38.4517 4.5207Z" fill="black"/>
</svg>
