<svg width="68" height="68" viewBox="0 0 68 68" fill="none" xmlns="http://www.w3.org/2000/svg">
<path d="M7.75 67.75C5.6875 67.75 3.90625 67.0312 2.40625 65.5937C0.968751 64.0937 0.25 62.3125 0.25 60.25V7.75C0.25 5.6875 0.968751 3.9375 2.40625 2.5C3.90625 0.999993 5.6875 0.249992 7.75 0.249992H60.25C62.3125 0.249992 64.0625 0.999993 65.5 2.5C67 3.9375 67.75 5.6875 67.75 7.75V60.25C67.75 62.3125 67 64.0937 65.5 65.5937C64.0625 67.0312 62.3125 67.75 60.25 67.75H7.75ZM7.75 60.25H60.25V7.75H7.75V60.25ZM11.5 52.75H56.5L42.4375 34L31.1875 49L22.75 37.75L11.5 52.75ZM7.75 60.25V7.75V60.25Z" fill="#1D1B20"/>
</svg>
