<svg width="48" height="48" viewBox="0 0 48 48" fill="none" xmlns="http://www.w3.org/2000/svg">
<g clip-path="url(#clip0_98_190)">
<path fill-rule="evenodd" clip-rule="evenodd" d="M18 37.5C18 37.8978 18.158 38.2794 18.4393 38.5607C18.7206 38.842 19.1022 39 19.5 39H43.5C43.8978 39 44.2794 38.842 44.5607 38.5607C44.842 38.2794 45 37.8978 45 37.5V10.5C45 10.1022 44.842 9.72064 44.5607 9.43934C44.2794 9.15804 43.8978 9 43.5 9H19.5C19.1022 9 18.7206 9.15804 18.4393 9.43934C18.158 9.72064 18 10.1022 18 10.5V16.5C18 16.8978 17.842 17.2794 17.5607 17.5607C17.2794 17.842 16.8978 18 16.5 18C16.1022 18 15.7206 17.842 15.4393 17.5607C15.158 17.2794 15 16.8978 15 16.5V10.5C15 9.30653 15.4741 8.16193 16.318 7.31802C17.1619 6.47411 18.3065 6 19.5 6H43.5C44.6935 6 45.8381 6.47411 46.682 7.31802C47.5259 8.16193 48 9.30653 48 10.5V37.5C48 38.6935 47.5259 39.8381 46.682 40.682C45.8381 41.5259 44.6935 42 43.5 42H19.5C18.3065 42 17.1619 41.5259 16.318 40.682C15.4741 39.8381 15 38.6935 15 37.5V31.5C15 31.1022 15.158 30.7206 15.4393 30.4393C15.7206 30.158 16.1022 30 16.5 30C16.8978 30 17.2794 30.158 17.5607 30.4393C17.842 30.7206 18 31.1022 18 31.5V37.5Z" fill="white"/>
<path fill-rule="evenodd" clip-rule="evenodd" d="M0.437996 25.062C0.298306 24.9227 0.187478 24.7571 0.111858 24.5749C0.0362389 24.3927 -0.00268555 24.1973 -0.00268555 24C-0.00268555 23.8027 0.0362389 23.6073 0.111858 23.4251C0.187478 23.2429 0.298306 23.0773 0.437996 22.938L9.438 13.938C9.57746 13.7985 9.74303 13.6879 9.92525 13.6124C10.1075 13.537 10.3028 13.4981 10.5 13.4981C10.6972 13.4981 10.8925 13.537 11.0747 13.6124C11.257 13.6879 11.4225 13.7985 11.562 13.938C11.7015 14.0775 11.8121 14.243 11.8876 14.4253C11.963 14.6075 12.0019 14.8028 12.0019 15C12.0019 15.1972 11.963 15.3925 11.8876 15.5748C11.8121 15.757 11.7015 15.9225 11.562 16.062L5.121 22.5H31.5C31.8978 22.5 32.2794 22.658 32.5607 22.9393C32.842 23.2206 33 23.6022 33 24C33 24.3978 32.842 24.7794 32.5607 25.0607C32.2794 25.342 31.8978 25.5 31.5 25.5H5.121L11.562 31.938C11.7015 32.0775 11.8121 32.243 11.8876 32.4253C11.963 32.6075 12.0019 32.8028 12.0019 33C12.0019 33.1972 11.963 33.3925 11.8876 33.5748C11.8121 33.757 11.7015 33.9225 11.562 34.062C11.4225 34.2015 11.257 34.3121 11.0747 34.3876C10.8925 34.4631 10.6972 34.5019 10.5 34.5019C10.3028 34.5019 10.1075 34.4631 9.92525 34.3876C9.74303 34.3121 9.57746 34.2015 9.438 34.062L0.437996 25.062Z" fill="white"/>
</g>
<defs>
<clipPath id="clip0_98_190">
<rect width="48" height="48" fill="white"/>
</clipPath>
</defs>
</svg>
