<svg width="69" height="71" viewBox="0 0 69 71" fill="none" xmlns="http://www.w3.org/2000/svg">
<path d="M11.5 59.1667C9.91875 59.1667 8.5651 58.5873 7.43906 57.4287C6.31302 56.27 5.75 54.8771 5.75 53.25V17.75C5.75 16.1229 6.31302 14.73 7.43906 13.5714C8.5651 12.4127 9.91875 11.8333 11.5 11.8333H57.5C59.0812 11.8333 60.4349 12.4127 61.5609 13.5714C62.687 14.73 63.25 16.1229 63.25 17.75V53.25C63.25 54.8771 62.687 56.27 61.5609 57.4287C60.4349 58.5873 59.0812 59.1667 57.5 59.1667H11.5ZM34.5 38.4583L11.5 23.6667V53.25H57.5V23.6667L34.5 38.4583ZM34.5 32.5417L57.5 17.75H11.5L34.5 32.5417ZM11.5 23.6667V17.75V53.25V23.6667Z" fill="#1D1B20"/>
</svg>
