<svg width="53" height="46" viewBox="0 0 53 46" fill="none" xmlns="http://www.w3.org/2000/svg">
<g clip-path="url(#clip0_153_324)">
<path d="M29.8125 0H36.3713C36.8483 2.05562 38.16 4.64888 40.4622 7.222C42.7147 9.74337 45.7026 11.5 49.6875 11.5V17.25C43.8807 17.25 39.5181 14.9097 36.4375 11.9916V31.625C36.4375 34.4681 35.4661 37.2474 33.6462 39.6113C31.8263 41.9753 29.2396 43.8178 26.2132 44.9058C23.1868 45.9938 19.8566 46.2785 16.6438 45.7238C13.431 45.1691 10.4799 43.8 8.16355 41.7897C5.84724 39.7793 4.26982 37.2179 3.63075 34.4294C2.99168 31.6409 3.31968 28.7506 4.57325 26.1239C5.82683 23.4972 7.94969 21.2522 10.6734 19.6726C13.3971 18.0931 16.5993 17.25 19.875 17.25V23C17.9096 23 15.9882 23.5058 14.354 24.4536C12.7198 25.4013 11.4461 26.7483 10.694 28.3244C9.94181 29.9004 9.74501 31.6346 10.1285 33.3077C10.5119 34.9807 11.4583 36.5176 12.8481 37.7238C14.2379 38.93 16.0086 39.7515 17.9363 40.0843C19.864 40.4171 21.8621 40.2463 23.6779 39.5935C25.4938 38.9407 27.0458 37.8352 28.1377 36.4168C29.2297 34.9984 29.8125 33.3309 29.8125 31.625V0Z" fill="black"/>
</g>
<defs>
<clipPath id="clip0_153_324">
<rect width="53" height="46" fill="white"/>
</clipPath>
</defs>
</svg>
